<?xml version="1.0" encoding="utf-8"?>
<!-- Generator: Adobe Illustrator 14.0.0, SVG Export Plug-In . SVG Version: 6.00 Build 43363)  -->
<!DOCTYPE svg PUBLIC "-//W3C//DTD SVG 1.1//EN" "http://www.w3.org/Graphics/SVG/1.1/DTD/svg11.dtd">
<svg version="1.1"
	 id="svg2" inkscape:version="0.48.2 r9819" sodipodi:docname="spritemap.svg" xmlns:dc="http://purl.org/dc/elements/1.1/" xmlns:cc="http://creativecommons.org/ns#" xmlns:rdf="http://www.w3.org/1999/02/22-rdf-syntax-ns#" xmlns:svg="http://www.w3.org/2000/svg" xmlns:sodipodi="http://sodipodi.sourceforge.net/DTD/sodipodi-0.dtd" xmlns:inkscape="http://www.inkscape.org/namespaces/inkscape"
	 xmlns="http://www.w3.org/2000/svg" xmlns:xlink="http://www.w3.org/1999/xlink" x="0px" y="0px" width="90px" height="210px"
	 viewBox="0 0 90 210" enable-background="new 0 0 90 210" xml:space="preserve">
<path id="valid" inkscape:connector-curvature="0" fill="#FFFFFF" stroke="#788703" d="M68.468,114.725
	c-0.122-0.172-0.831-0.865-1.575-1.537c-2-1.814-3.591-2.808-6.271-3.916l-0.491-0.196l0.915-0.974
	c0.502-0.533,1.219-1.34,1.592-1.791l0.682-0.814l1.061,0.686c1.124,0.727,2.42,1.938,3.545,3.312l0.684,0.829l1.076-1.938
	c2.934-5.241,6.336-9.706,8.938-11.714l0.927-0.714l0.979,0.98c0.539,0.541,1.462,1.349,2.054,1.794l1.073,0.816l-0.823,0.42
	c-2.185,1.106-5.94,4.48-8.729,7.846c-1.297,1.57-3.783,4.979-4.677,6.416C68.869,115.127,68.787,115.168,68.468,114.725
	L68.468,114.725L68.468,114.725L68.468,114.725z"/>
<polygon id="invalid" fill="#FFFFFF" stroke="#C41616" points="71.545,194.477 65.044,200.979 68.066,204 74.568,197.499 
	81.072,204 84.092,200.979 77.589,194.477 84.092,187.975 81.072,184.952 74.568,191.454 68.066,184.952 65.044,187.975 "/>
<g id="optional" transform="matrix(0.40442342,0,0,0.40442342,41.944703,478.23152)">
	<path id="path3146" inkscape:connector-curvature="0" d="M-77.07-1148.387c0-6.033,1.619-10.76,4.862-14.173
		c3.238-3.413,7.419-5.123,12.548-5.123c3.355,0,6.383,0.8,9.073,2.409c2.696,1.602,4.757,3.836,6.164,6.706
		c1.416,2.871,2.125,6.121,2.125,9.76c0,3.687-0.745,6.987-2.236,9.898c-1.485,2.906-3.592,5.113-6.319,6.609
		c-2.732,1.497-5.676,2.242-8.831,2.242c-3.422,0-6.485-0.827-9.176-2.481c-2.701-1.653-4.738-3.912-6.122-6.771
		C-76.374-1142.169-77.07-1145.193-77.07-1148.387z M-72.111-1148.311c0,4.379,1.177,7.832,3.533,10.353
		c2.359,2.522,5.317,3.783,8.868,3.783c3.624,0,6.604-1.271,8.94-3.816c2.341-2.549,3.51-6.159,3.51-10.836
		c0-2.963-0.496-5.544-1.5-7.751c-0.997-2.207-2.462-3.918-4.389-5.135c-1.927-1.218-4.088-1.822-6.491-1.822
		c-3.404,0-6.333,1.17-8.794,3.505C-70.883-1157.689-72.111-1153.784-72.111-1148.311z"/>
	<path id="path3148" inkscape:connector-curvature="0" d="M-36.696-1120.583v-36.434h4.076v3.423
		c0.956-1.34,2.033-2.343,3.243-3.015c1.209-0.666,2.672-1.003,4.392-1.003c2.253,0,4.231,0.581,5.951,1.736
		c1.718,1.157,3.016,2.79,3.895,4.898c0.879,2.108,1.311,4.419,1.311,6.93c0,2.696-0.483,5.124-1.451,7.278
		c-0.961,2.159-2.365,3.814-4.215,4.961c-1.845,1.152-3.781,1.724-5.813,1.724c-1.49,0-2.824-0.313-4.011-0.943
		c-1.177-0.628-2.153-1.421-2.911-2.38v12.821h-4.467V-1120.583z M-32.653-1143.698c0,3.389,0.686,5.893,2.061,7.517
		c1.375,1.618,3.034,2.427,4.985,2.427c1.985,0,3.685-0.834,5.095-2.515c1.415-1.677,2.119-4.279,2.119-7.802
		c0-3.355-0.687-5.865-2.067-7.54c-1.38-1.666-3.034-2.504-4.949-2.504c-1.905,0-3.582,0.89-5.05,2.67
		C-31.916-1149.671-32.653-1147.088-32.653-1143.698z"/>
	<path id="path3150" inkscape:connector-curvature="0" d="M1.327-1134.669l0.645,3.942c-1.256,0.264-2.378,0.397-3.371,0.397
		c-1.62,0-2.881-0.256-3.772-0.769c-0.891-0.512-1.524-1.187-1.886-2.02c-0.357-0.838-0.541-2.596-0.541-5.271v-15.155h-3.278
		v-3.472h3.278v-6.522l4.436-2.678v9.2h4.489v3.472h-4.489v15.402c0,1.274,0.08,2.089,0.234,2.456
		c0.157,0.362,0.413,0.653,0.773,0.867c0.355,0.214,0.862,0.32,1.526,0.32C-0.141-1134.497,0.518-1134.554,1.327-1134.669z"/>
	<path id="path3152" inkscape:connector-curvature="0" d="M5.693-1161.902v-5.134h4.472v5.134H5.693z M5.693-1130.677v-26.341h4.472
		v26.341H5.693z"/>
	<path id="path3154" inkscape:connector-curvature="0" d="M15.316-1143.848c0-4.88,1.352-8.491,4.064-10.837
		c2.277-1.95,5.032-2.924,8.29-2.924c3.617,0,6.578,1.187,8.881,3.558c2.299,2.371,3.448,5.648,3.448,9.835
		c0,3.389-0.512,6.056-1.526,7.999c-1.024,1.94-2.497,3.449-4.443,4.525c-1.939,1.075-4.059,1.609-6.358,1.609
		c-3.69,0-6.667-1.182-8.944-3.548C16.453-1135.994,15.316-1139.397,15.316-1143.848L15.316-1143.848z M19.906-1143.848
		c0,3.373,0.734,5.899,2.207,7.577c1.473,1.676,3.323,2.516,5.556,2.516c2.212,0,4.057-0.843,5.527-2.529
		c1.473-1.685,2.209-4.26,2.209-7.714c0-3.256-0.741-5.723-2.222-7.4c-1.478-1.677-3.318-2.52-5.515-2.52
		c-2.236,0-4.086,0.833-5.559,2.504C20.64-1149.742,19.906-1147.222,19.906-1143.848z"/>
	<path id="path3156" inkscape:connector-curvature="0" d="M45.248-1130.677v-26.341h4.025v3.745c1.932-2.893,4.728-4.34,8.384-4.34
		c1.584,0,3.04,0.29,4.371,0.856c1.333,0.57,2.333,1.32,2.994,2.244c0.657,0.925,1.118,2.026,1.384,3.297
		c0.167,0.827,0.256,2.272,0.256,4.343v16.193h-4.467v-16.023c0-1.818-0.174-3.179-0.519-4.081
		c-0.353-0.902-0.959-1.619-1.852-2.159c-0.884-0.536-1.917-0.808-3.11-0.808c-1.893,0-3.54,0.604-4.921,1.811
		c-1.381,1.205-2.077,3.494-2.077,6.866v14.384h-4.462v0.005h-0.005V-1130.677L45.248-1130.677z"/>
	<path id="path3158" inkscape:connector-curvature="0" d="M90.71-1133.927c-1.647,1.405-3.238,2.399-4.767,2.976
		c-1.526,0.577-3.173,0.867-4.931,0.867c-2.888,0-5.114-0.705-6.669-2.118c-1.553-1.414-2.333-3.224-2.333-5.423
		c0-1.286,0.295-2.467,0.884-3.529c0.584-1.065,1.357-1.922,2.306-2.569c0.956-0.645,2.024-1.132,3.219-1.463
		c0.864-0.233,2.19-0.455,3.965-0.667c3.598-0.431,6.254-0.944,7.959-1.543c0.017-0.611,0.027-0.996,0.027-1.164
		c0-1.817-0.423-3.098-1.26-3.849c-1.14-1.007-2.84-1.509-5.085-1.509c-2.106,0-3.651,0.368-4.656,1.101
		c-1,0.736-1.739,2.04-2.217,3.908l-4.366-0.595c0.391-1.868,1.058-3.377,1.956-4.525c0.913-1.148,2.226-2.032,3.946-2.654
		c1.724-0.622,3.709-0.93,5.979-0.93c2.246,0,4.076,0.264,5.477,0.793c1.415,0.529,2.446,1.197,3.11,1.996
		c0.664,0.803,1.12,1.817,1.376,3.038c0.159,0.764,0.232,2.136,0.232,4.117v5.953c0,4.152,0.092,6.776,0.285,7.873
		c0.193,1.101,0.57,2.154,1.13,3.161h-4.66C91.149-1131.604,90.848-1132.688,90.71-1133.927L90.71-1133.927z M90.34-1143.896
		c-1.618,0.659-4.047,1.223-7.283,1.684c-1.84,0.264-3.139,0.564-3.902,0.892c-0.758,0.332-1.345,0.82-1.758,1.451
		c-0.415,0.636-0.618,1.344-0.618,2.119c0,1.193,0.444,2.185,1.345,2.977c0.903,0.793,2.224,1.189,3.953,1.189
		c1.719,0,3.255-0.377,4.593-1.129c1.343-0.756,2.328-1.782,2.951-3.087c0.478-1.008,0.715-2.497,0.715-4.466v-1.635h0.005
		V-1143.896L90.34-1143.896z"/>
	<path id="path3160" inkscape:connector-curvature="0" d="M101.702-1130.677v-36.358h4.462v36.358H101.702z"/>
</g>
</svg>
