<?xml version="1.0" encoding="UTF-8" standalone="no"?>
<!-- Generator: Adobe Illustrator 14.0.0, SVG Export Plug-In . SVG Version: 6.00 Build 43363)  -->

<svg
   xmlns:dc="http://purl.org/dc/elements/1.1/"
   xmlns:cc="http://creativecommons.org/ns#"
   xmlns:rdf="http://www.w3.org/1999/02/22-rdf-syntax-ns#"
   xmlns:svg="http://www.w3.org/2000/svg"
   xmlns="http://www.w3.org/2000/svg"
   xmlns:sodipodi="http://sodipodi.sourceforge.net/DTD/sodipodi-0.dtd"
   xmlns:inkscape="http://www.inkscape.org/namespaces/inkscape"
   version="1.1"
   id="svg2"
   inkscape:version="0.48.2 r9819"
   sodipodi:docname="spritemap.svg"
   x="0px"
   y="0px"
   width="100px"
   height="260px"
   viewBox="0 0 100 240"
   enable-background="new 0 0 100 260"
   xml:space="preserve"><metadata
   id="metadata18"><rdf:RDF><cc:Work
       rdf:about=""><dc:format>image/svg+xml</dc:format><dc:type
         rdf:resource="http://purl.org/dc/dcmitype/StillImage" /></cc:Work></rdf:RDF></metadata><defs
   id="defs16" /><sodipodi:namedview
   pagecolor="#ffffff"
   bordercolor="#666666"
   borderopacity="1"
   objecttolerance="10"
   gridtolerance="10"
   guidetolerance="10"
   inkscape:pageopacity="0"
   inkscape:pageshadow="2"
   inkscape:window-width="928"
   inkscape:window-height="756"
   id="namedview14"
   showgrid="false"
   inkscape:zoom="3.6307692"
   inkscape:cx="77.984356"
   inkscape:cy="39.002802"
   inkscape:window-x="0"
   inkscape:window-y="0"
   inkscape:window-maximized="0"
   inkscape:current-layer="svg2" />
<path
   id="valid"
   inkscape:connector-curvature="0"
   fill="#FFFFFF"
   stroke="#788703"
   d="M84.234,97.768  c-0.103-0.144-0.699-0.727-1.324-1.292c-1.68-1.523-3.017-2.359-5.27-3.291l-0.412-0.164l0.769-0.82  c0.422-0.448,1.025-1.125,1.339-1.505l0.573-0.683l0.892,0.578c0.944,0.61,2.033,1.628,2.979,2.783l0.576,0.697l0.903-1.628  c2.467-4.405,5.324-8.157,7.511-9.844l0.778-0.6l0.823,0.823c0.453,0.455,1.229,1.134,1.727,1.508L97,85.017l-0.691,0.353  c-1.837,0.93-4.992,3.765-7.336,6.594c-1.09,1.319-3.179,4.184-3.93,5.391C84.571,98.106,84.503,98.141,84.234,97.768L84.234,97.768  L84.234,97.768L84.234,97.768z" />
<polygon
   id="invalid"
   fill="#FFFFFF"
   stroke="#C41616"
   points="85.144,170 79,176.145 81.856,179 88,172.856 94.146,179 97,176.145   90.854,170 97,163.856 94.146,161 88,167.145 81.856,161 79,163.856 " />
<g
   id="optional"
   transform="matrix(0.40442342,0,0,0.40442342,41.944703,478.23152)">
	<path
   id="path3146"
   inkscape:connector-curvature="0"
   d="M-15.307-1161.35c0-5.066,1.359-9.037,4.083-11.905   c2.721-2.866,6.232-4.303,10.54-4.303c2.818,0,5.363,0.671,7.622,2.024c2.264,1.345,3.995,3.224,5.177,5.633   c1.19,2.412,1.784,5.142,1.784,8.198c0,3.097-0.625,5.87-1.877,8.316c-1.247,2.439-3.017,4.292-5.309,5.55   c-2.294,1.257-4.767,1.882-7.418,1.882c-2.872,0-5.446-0.693-7.707-2.083c-2.269-1.39-3.979-3.288-5.143-5.688   C-14.722-1156.127-15.307-1158.667-15.307-1161.35z M-11.141-1161.286c0,3.679,0.988,6.579,2.968,8.697   c1.98,2.119,4.465,3.177,7.447,3.177c3.045,0,5.549-1.066,7.511-3.202c1.966-2.143,2.95-5.176,2.95-9.104   c0-2.488-0.418-4.657-1.262-6.51c-0.837-1.854-2.067-3.291-3.685-4.313c-1.62-1.023-3.435-1.531-5.455-1.531   c-2.86,0-5.32,0.982-7.385,2.942C-10.11-1169.162-11.141-1165.884-11.141-1161.286z" />
	<path
   id="path3148"
   inkscape:connector-curvature="0"
   d="M18.607-1137.995v-30.604h3.422v2.876c0.804-1.124,1.71-1.968,2.724-2.533   c1.017-0.559,2.246-0.843,3.69-0.843c1.893,0,3.554,0.49,5.001,1.458c1.442,0.973,2.533,2.345,3.272,4.113   c0.739,1.771,1.101,3.713,1.101,5.823c0,2.264-0.406,4.303-1.222,6.113c-0.807,1.813-1.985,3.203-3.538,4.165   c-1.553,0.968-3.175,1.449-4.885,1.449c-1.251,0-2.371-0.262-3.369-0.792c-0.988-0.526-1.809-1.193-2.446-2.001v10.771h-3.75   V-1137.995z M22.002-1157.411c0,2.846,0.577,4.95,1.731,6.313c1.154,1.361,2.55,2.038,4.187,2.038c1.669,0,3.096-0.7,4.279-2.112   c1.188-1.408,1.782-3.594,1.782-6.552c0-2.82-0.577-4.927-1.736-6.335c-1.161-1.399-2.548-2.103-4.158-2.103   c-1.601,0-3.006,0.749-4.243,2.243C22.62-1162.427,22.002-1160.259,22.002-1157.411z" />
	<path
   id="path3150"
   inkscape:connector-curvature="0"
   d="M50.544-1149.828l0.541,3.311c-1.053,0.222-1.997,0.336-2.828,0.336   c-1.364,0-2.422-0.216-3.168-0.647c-0.753-0.43-1.282-0.996-1.584-1.698c-0.304-0.703-0.459-2.179-0.459-4.426v-12.73h-2.753   v-2.917h2.753v-5.478l3.728-2.249v7.727h3.769v2.917h-3.769v12.937c0,1.07,0.068,1.754,0.196,2.063   c0.133,0.304,0.348,0.549,0.65,0.728c0.297,0.18,0.724,0.268,1.282,0.268C49.312-1149.683,49.865-1149.731,50.544-1149.828z" />
	<path
   id="path3152"
   inkscape:connector-curvature="0"
   d="M54.209-1172.703v-4.31h3.76v4.31H54.209z M54.209-1146.475v-22.125h3.76   v22.125H54.209z" />
	<path
   id="path3154"
   inkscape:connector-curvature="0"
   d="M62.294-1157.538c0-4.098,1.135-7.131,3.414-9.101   c1.912-1.64,4.226-2.457,6.964-2.457c3.035,0,5.525,0.997,7.459,2.988c1.932,1.991,2.898,4.744,2.898,8.261   c0,2.847-0.43,5.088-1.282,6.72c-0.862,1.629-2.098,2.898-3.733,3.8c-1.63,0.904-3.407,1.351-5.339,1.351   c-3.1,0-5.602-0.991-7.515-2.979C63.247-1150.941,62.294-1153.8,62.294-1157.538L62.294-1157.538z M66.148-1157.538   c0,2.834,0.618,4.955,1.854,6.364c1.239,1.409,2.794,2.114,4.67,2.114c1.857,0,3.405-0.709,4.639-2.125   c1.239-1.414,1.857-3.579,1.857-6.48c0-2.735-0.621-4.807-1.864-6.215c-1.241-1.408-2.787-2.118-4.631-2.118   c-1.879,0-3.434,0.701-4.672,2.103C66.766-1162.488,66.148-1160.37,66.148-1157.538z" />
	<path
   id="path3156"
   inkscape:connector-curvature="0"
   d="M87.436-1146.475v-22.125h3.381v3.145c1.623-2.43,3.975-3.645,7.046-3.645   c1.328,0,2.552,0.244,3.67,0.72c1.12,0.478,1.956,1.108,2.514,1.885c0.551,0.775,0.939,1.701,1.161,2.767   c0.14,0.695,0.215,1.909,0.215,3.647v13.602h-3.752v-13.457c0-1.526-0.145-2.671-0.435-3.429c-0.299-0.757-0.804-1.361-1.555-1.815   c-0.744-0.448-1.611-0.677-2.613-0.677c-1.591,0-2.973,0.507-4.134,1.52c-1.159,1.012-1.746,2.935-1.746,5.769v12.081H87.44v0.006   h-0.005V-1146.475L87.436-1146.475z" />
	<path
   id="path3158"
   inkscape:connector-curvature="0"
   d="M125.624-1149.204c-1.386,1.18-2.724,2.016-4.004,2.502   c-1.285,0.483-2.666,0.727-4.144,0.727c-2.424,0-4.293-0.592-5.602-1.78c-1.302-1.188-1.958-2.708-1.958-4.554   c0-1.081,0.249-2.072,0.741-2.964c0.493-0.895,1.14-1.615,1.937-2.16c0.802-0.541,1.7-0.948,2.704-1.227   c0.724-0.197,1.84-0.383,3.332-0.56c3.021-0.363,5.254-0.793,6.684-1.297c0.014-0.513,0.019-0.838,0.019-0.978   c0-1.526-0.35-2.603-1.058-3.232c-0.954-0.848-2.383-1.268-4.272-1.268c-1.768,0-3.067,0.309-3.907,0.924   c-0.843,0.618-1.463,1.713-1.864,3.283l-3.666-0.5c0.328-1.568,0.886-2.835,1.642-3.8c0.765-0.966,1.869-1.708,3.313-2.231   c1.446-0.522,3.115-0.781,5.02-0.781c1.891,0,3.426,0.221,4.602,0.665c1.19,0.444,2.06,1.005,2.613,1.678   c0.56,0.674,0.939,1.526,1.154,2.552c0.135,0.64,0.196,1.794,0.196,3.458v4.999c0,3.488,0.077,5.694,0.241,6.613   c0.159,0.926,0.478,1.81,0.949,2.655h-3.917C125.991-1147.253,125.74-1148.163,125.624-1149.204L125.624-1149.204z    M125.315-1157.579c-1.362,0.555-3.4,1.029-6.121,1.415c-1.545,0.222-2.634,0.474-3.277,0.749c-0.635,0.28-1.13,0.689-1.478,1.219   c-0.348,0.534-0.519,1.129-0.519,1.781c0,1.001,0.374,1.834,1.132,2.499c0.758,0.667,1.867,1,3.32,1   c1.442,0,2.731-0.318,3.856-0.949c1.13-0.634,1.956-1.497,2.48-2.594c0.401-0.846,0.601-2.097,0.601-3.75v-1.374h0.005V-1157.579   L125.315-1157.579z" />
	<path
   id="path3160"
   inkscape:connector-curvature="0"
   d="M134.858-1146.475v-30.537h3.748v30.537H134.858z" />
</g>
<text
   xml:space="preserve"
   style="font-size:22.3519783px;font-style:normal;font-weight:normal;line-height:125%;letter-spacing:0px;word-spacing:0px;fill:#000000;fill-opacity:1;stroke:none;font-family:Sans"
   x="85.245438"
   y="245.59323"
   id="text2995"
   sodipodi:linespacing="125%"><tspan
     sodipodi:role="line"
     id="tspan2997"
     x="85.245438"
     y="245.59323">!</tspan></text>
</svg>