<?xml version="1.0" encoding="UTF-8" standalone="no"?>
<!-- Generator: Adobe Illustrator 14.0.0, SVG Export Plug-In . SVG Version: 6.00 Build 43363)  -->
<!DOCTYPE svg PUBLIC "-//W3C//DTD SVG 1.1//EN" "http://www.w3.org/Graphics/SVG/1.1/DTD/svg11.dtd">
<svg
	width="250"
	height="50"
	version="1.1"
	xmlns="http://www.w3.org/2000/svg">
	<defs id="gradients">
		<linearGradient id="helpGradient" x1="0" y1="0" x2="0" y2="150%" gradientUnits="userSpaceOnUse">
			<stop offset="0" style="stop-color:#FFFFFF" />
			<stop offset="1" style="stop-color:#2E3192" />
		</linearGradient>
		<linearGradient id="infoGradient" x1="0" y1="0" x2="0" y2="150%" gradientUnits="userSpaceOnUse">
			<stop offset="0" style="stop-color:#FFFFFF" />
			<stop offset="1" style="stop-color:#005FB4" />
		</linearGradient>
		<linearGradient id="successGradient" x1="0" y1="0" x2="0" y2="150%" gradientUnits="userSpaceOnUse">
			<stop offset="0" style="stop-color:#FFFFFF" />
			<stop offset="1" style="stop-color:#6F7D03" />
		</linearGradient>
		<linearGradient id="warningGradient" x1="0" y1="0" x2="0" y2="150%" gradientUnits="userSpaceOnUse">
			<stop offset="0" style="stop-color:#FFFFFF" />
			<stop offset="1" style="stop-color:#A0410D" />
		</linearGradient>
		<linearGradient id="errorGradient" x1="0" y1="0" x2="0" y2="150%" gradientUnits="userSpaceOnUse">
			<stop offset="0" style="stop-color:#FFFFFF" />
			<stop offset="1" style="stop-color:#C41616" />
		</linearGradient>
	</defs>
	<g id="help">
		<circle fill="#2E3192" cx="25" cy="25" r="25"/>
		<circle fill="url(#helpGradient)" cx="25" cy="25" r="23"/>
		<g id="question mark" transform="matrix(0.85761374,0,0,0.85761374,11.147324,4.3153273)">
			<path fill="#FFFFFF" stroke="#2E3192" stroke-width="2" d="M12.834,32.324c0,0-0.049-1.724,0-3.277 c0.117-3.719,0.383-5.331,4.269-8.368c4.028-2.94,4.919-4.259,5.325-6.792c1.262-7.88-11.948-7.655-11.143-2.207 c0.459,3.106-1.642,4.166-3.749,4.246c-2.793,0.105-4.518-2.554-3.778-5.314c0.927-3.456,6.477-6.202,9.683-6.719 c6.635-0.83,11.916,1.006,14.862,4.297c4.095,4.575,3.216,12.189-5.49,15.298c-2.636,0.941-4.682,2.587-4.796,5.884 c-0.039,1.148-0.075,2.954-0.075,2.954H12.834L12.834,32.324z"/>
			<circle fill="#FFFFFF" stroke="#2E3192" stroke-width="2" cx="15.317" cy="40.899" r="3.861"/>
		</g>
	</g>
	<g id="info">
		<circle fill="#005DB4" cx="75" cy="25" r="25"/>
		<circle fill="url(#infoGradient)" cx="75" cy="25" r="23"/>
		<g id="i" transform="matrix(0.85761374,0,0,0.85761374,11.147324,4.3153273)">
			<path fill="#FFFFFF" stroke="#005DB4" stroke-width="2" d="M71.508,34.413c-0.006,0.861-0.036,1.585-0.036,2.58c0,0.699-0.026,2.093-1.013,2.093c-0.855,0-2.566,0-2.566,0 c-0.178-0.002-0.318,0.032-0.423,0.102c-0.104,0.066-0.158,0.189-0.161,0.362v2.849c0.002,0.23,0.043,0.385,0.124,0.467  c0.081,0.083,0.196,0.123,0.343,0.117c0.357-0.008,1.072-0.035,2.144-0.089c1.072-0.05,2.457-0.082,4.156-0.089
			c1.975,0.007,3.581,0.035,4.819,0.089c1.238,0.05,1.984,0.081,2.238,0.089c0.173-0.001,0.294-0.057,0.364-0.163 c0.071-0.1,0.104-0.245,0.102-0.421v-2.906c0.005-0.145-0.034-0.248-0.117-0.312c-0.083-0.066-0.238-0.098-0.466-0.096 c0,0-1.555,0-2.333,0c-0.919,0-1.035-1.118-1.035-1.713c0-1.041-0.012-2.052-0.015-3.077c-0.005-2.102,0-6.299,0-6.299 c-0.002-2.455,0.003-4.53,0.015-6.222c0.012-1.69,0.046-2.783,0.102-3.286c0.049-0.465-0.107-0.699-0.466-0.699
			c-0.35,0-0.816,0.116-1.4,0.351c-0.391,0.157-1.132,0.433-2.225,0.829c-1.093,0.396-2.175,0.79-3.249,1.18 c-1.073,0.389-1.776,0.656-2.108,0.79c-0.145,0.057-0.249,0.121-0.314,0.19c-0.064,0.069-0.096,0.163-0.095,0.277v0.642 c-0.009,0.116,0.023,0.219,0.095,0.305c0.072,0.088,0.235,0.162,0.489,0.219c1.3,0.348,2.141,0.82,2.523,1.414 c0.381,0.597,0.552,1.33,0.51,2.202C71.508,26.189,71.527,31.672,71.508,34.413L71.508,34.413z"/>
			<circle fill="#FFFFFF" stroke="#005DB4" stroke-width="2" cx="73.972" cy="8.56" r="3.734"/>
		</g>
	</g>
	<g id="success">
		<circle fill="#6F7D03" cx="125" cy="25" r="25"/>
		<circle fill="url(#successGradient)" cx="125" cy="25" r="23"/>
		<path id="Checkmark" fill="#FFFFFF" stroke="#6F7D03" stroke-width="2" d="M119.596,39.592 c-0.192-0.268-1.313-1.361-2.488-2.428c-3.153-2.863-5.662-4.428-9.899-6.174l-0.77-0.316l1.442-1.534 c0.793-0.843,1.924-2.114,2.513-2.825l1.072-1.291l1.675,1.083c1.771,1.146,3.819,3.056,5.594,5.222l1.073,1.309l1.705-3.053 c4.622-8.272,9.994-15.314,14.103-18.483l1.462-1.127l1.543,1.546c0.85,0.851,2.309,2.125,3.242,2.833l1.697,1.286l-1.307,0.663 c-3.444,1.745-9.368,7.069-13.771,12.378c-2.054,2.477-5.974,7.856-7.378,10.125C120.229,40.225,120.099,40.291,119.596,39.592 L119.596,39.592L119.596,39.592z"/>
	</g>
	<g id="warning">
		<path fill="#A0410D" d="M174.998,2.938c-0.969,0-1.938,0.638-2.674,1.911 l-21.697,37.583c-1.471,2.547-0.268,4.631,2.675,4.631h43.396c2.942,0,4.146-2.084,2.675-4.631l-21.7-37.583 C176.938,3.574,175.969,2.938,174.998,2.938L174.998,2.938z"/>
		<path fill="url(#warningGradient)" d="M174.998,4.937c-0.167,0-0.556,0.243-0.939,0.911L152.36,43.432
		c-0.386,0.668-0.401,1.126-0.317,1.271c0.083,0.145,0.487,0.359,1.26,0.359h43.396c0.772,0,1.178-0.216,1.262-0.36
		s0.067-0.601-0.319-1.271L175.94,5.849C175.555,5.18,175.165,4.937,174.998,4.937L174.998,4.937z"/>
		<g id="exclaimation_mark" transform="matrix(0.85761374,0,0,0.85761374,11.147324,4.3153273)"/>
		<g id="exclaimation mark" transform="matrix(0.85761374,0,0,0.85761374,11.147324,4.3153273)">
			<path fill="#FFFFFF" stroke="#A0410D" stroke-width="2" d="M191.056,9.614c1.432,0,4.907,0.276,4.907,3.052c0,2.805-2.922,17.866-3.335,20.1h-1.571 h-1.57c-0.413-2.234-3.335-17.295-3.335-20.1C186.149,9.89,189.624,9.614,191.056,9.614z"/>
			<path fill="#FFFFFF" stroke="#A0410D" stroke-width="2"   d="M195.32,40.336c0,5.436-8.528,5.436-8.528,0C186.793,34.836,195.32,34.839,195.32,40.336"/>
		</g>
	</g>
	<g id="error">
<!--		<circle fill="#C41616" cx="225" cy="25" r="25"/>
		<circle fill="url(#errorGradient)" cx="225" cy="25" r="23"/>-->
		<polygon fill="#C41616" points="214.646,50 200,35.355 200,14.645 214.646,0 235.354,0 250,14.645 250,35.355 235.354,50"/>
		<polygon fill="url(#errorGradient)" points="215.474,48 202,34.527 202,15.473 215.474,2 234.526,2 248,15.473 248,34.527 234.526,48"/>		<!--<rect x="203" y="3" fill="#C41616" width="44" height="44"/>
		<rect x="205" y="5" fill="url(#errorGradient)" width="40" height="40"/>-->
		<polygon id="x" fill="#FFFFFF" stroke="#C41616" stroke-width="2" points="224.999,29.758 235.233,39.991 239.991,35.234 229.757,25 239.991,14.765 235.233,10.009 224.999,20.242 214.766,10.009 210.009,14.765 220.242,25 210.009,35.234 214.766,39.991"/>
	</g>
</svg>